<!DOCTYPE svg PUBLIC "-//W3C//DTD SVG 1.1//EN" "http://www.w3.org/Graphics/SVG/1.1/DTD/svg11.dtd">
<!-- Uploaded to: SVG Repo, www.svgrepo.com, Transformed by: SVG Repo Mixer Tools -->
<svg width="800px" height="800px" viewBox="0 0 64 64" xmlns="http://www.w3.org/2000/svg" xmlns:xlink="http://www.w3.org/1999/xlink" aria-hidden="true" role="img" class="iconify iconify--emojione" preserveAspectRatio="xMidYMid meet" fill="#000000">
<g id="SVGRepo_bgCarrier" stroke-width="0"/>
<g id="SVGRepo_tracerCarrier" stroke-linecap="round" stroke-linejoin="round"/>
<g id="SVGRepo_iconCarrier">
<path d="M6.2 57.8C1 52.7.6 44.6 5.3 39.9l17.1-17.1l18.8 18.8l-17.1 17.1c-4.7 4.7-12.8 4.3-17.9-.9" fill="#d7fffb"/>
<path d="M58.3 26.8c5.3-5.3 4.9-14.3-1-20.1C51.5.9 42.5.5 37.2 5.7L24.4 18.5l-3.7 3.7l-.1.1c-.7.7-.7 1.9 0 2.6L39 43.3c.7.7 1.8.7 2.6 0l.1-.1l3.7-3.7l12.9-12.7" fill="#42ade2"/>
</g>
</svg>